<?xml version="1.0" encoding="utf-8"?>
<!-- Generator: Adobe Illustrator 21.0.0, SVG Export Plug-In . SVG Version: 6.00 Build 0)  -->
<svg version="1.1" id="Слой_1" xmlns="http://www.w3.org/2000/svg" xmlns:xlink="http://www.w3.org/1999/xlink" x="0px" y="0px"
	 width="32px" height="32px" viewBox="0 0 32 32" style="enable-background:new 0 0 32 32;" xml:space="preserve">
<style type="text/css">
	.st0{fill:#FFFFFF;}
</style>
<g>
	<path class="st0" d="M20.9,16c0,2.7-2.2,4.9-4.9,4.9S11,18.7,11,16c0-0.4,0.1-0.8,0.1-1.1h-0.9v6.8h11.4v-6.8h-0.9
		C20.9,15.2,20.9,15.6,20.9,16z"/>
	<path class="st0" d="M16,18.7c1.5,0,2.7-1.2,2.7-2.7s-1.2-2.7-2.7-2.7s-2.7,1.2-2.7,2.7S14.5,18.7,16,18.7z"/>
	<rect x="18.6" y="10.3" class="st0" width="3" height="3"/>
	<path class="st0" d="M16,0C7.2,0,0,7.2,0,16c0,8.8,7.2,16,16,16c8.8,0,16-7.2,16-16C32,7.2,24.8,0,16,0z M24,21.7
		c0,1.3-1,2.3-2.3,2.3H10.3C9,24,8,23,8,21.7V10.3C8,9,9,8,10.3,8h11.4c1.3,0,2.3,1,2.3,2.3L24,21.7L24,21.7z"/>
</g>
</svg>
