<?xml version="1.0" encoding="utf-8"?>
<!-- Generator: Adobe Illustrator 21.0.0, SVG Export Plug-In . SVG Version: 6.00 Build 0)  -->
<svg version="1.1" id="Слой_1" xmlns="http://www.w3.org/2000/svg" xmlns:xlink="http://www.w3.org/1999/xlink" x="0px" y="0px"
	 viewBox="0 0 160.9 34.9" style="enable-background:new 0 0 160.9 34.9;" xml:space="preserve">
<style type="text/css">
	.st0{enable-background:new    ;}
</style>
<g class="st0">
	<path d="M30,17.5c0,9.5-7.1,16.8-16.4,16.8H0V0.7h13.5C22.9,0.7,30,8,30,17.5z M22.5,17.5c0-5.8-3.7-9.4-9-9.4H7.7v18.8h5.8
		C18.9,26.9,22.5,23.2,22.5,17.5z"/>
	<path d="M55.6,26.9v7.4H34.3V0.7h21v7.4H42.1v5.6h12.1v7.3H42.1v6H55.6z"/>
	<path d="M57,0.7h8.5L73,25.4l7.5-24.7h8.5l-11,33.6h-9.9L57,0.7z"/>
	<path d="M99.6,0.7v33.6h-7.7V0.7H99.6z"/>
	<path d="M103.9,17.5c0-9.9,7.4-17.5,17.6-17.5c6.1,0,11.6,3,14.5,7.8l-6.7,3.8c-1.5-2.6-4.4-4.1-7.8-4.1c-6,0-9.9,4-9.9,10
		c0,6,3.9,10,9.9,10c3.4,0,6.4-1.5,7.8-4.1l6.7,3.8c-2.9,4.8-8.3,7.8-14.5,7.8C111.3,34.9,103.9,27.4,103.9,17.5z"/>
	<path d="M160.9,26.9v7.4h-21.3V0.7h21v7.4h-13.3v5.6h12.1v7.3h-12.1v6H160.9z"/>
</g>
</svg>
